<svg xmlns="http://www.w3.org/2000/svg" width="40" height="40" viewBox="0 0 40 40"><defs><style>.a,.d{fill:none;}.a{stroke:#ebebeb;}.b{fill:#fff;}.c{stroke:none;}</style></defs><g transform="translate(-314 -40)"><g class="a" transform="translate(314 40)"><rect class="c" width="40" height="40" rx="17"/><rect class="d" x="0.5" y="0.5" width="39" height="39" rx="16.5"/></g><path class="b" d="M339,59.81a2,2,0,1,1,2,2A2,2,0,0,1,339,59.81Zm-7,0a2,2,0,1,1,2,2A2,2,0,0,1,332,59.81Zm-7,0a2,2,0,1,1,2,2A2,2,0,0,1,325,59.81Z"/></g></svg>